<?xml version="1.0" encoding="utf-8"?>
<!-- Generator: Adobe Illustrator 24.1.3, SVG Export Plug-In . SVG Version: 6.00 Build 0)  -->
<svg version="1.1"
	 id="svg477" xmlns:cc="http://creativecommons.org/ns#" xmlns:dc="http://purl.org/dc/elements/1.1/" xmlns:inkscape="http://www.inkscape.org/namespaces/inkscape" xmlns:rdf="http://www.w3.org/1999/02/22-rdf-syntax-ns#" xmlns:sodipodi="http://sodipodi.sourceforge.net/DTD/sodipodi-0.dtd" xmlns:svg="http://www.w3.org/2000/svg"
	 xmlns="http://www.w3.org/2000/svg" xmlns:xlink="http://www.w3.org/1999/xlink" x="0px" y="0px" viewBox="0 0 192.6 27.2"
	 style="enable-background:new 0 0 192.6 27.2;" xml:space="preserve">
<style type="text/css">
	.st0{fill:#FFFFFF;}
</style>
<sodipodi:namedview  bordercolor="#666666" borderopacity="1.0" fit-margin-bottom="0" fit-margin-left="0" fit-margin-right="0" fit-margin-top="0" id="base" inkscape:current-layer="layer1" inkscape:cx="95.287456" inkscape:cy="12.612009" inkscape:document-units="mm" inkscape:pageopacity="0.0" inkscape:pageshadow="2" inkscape:window-height="744" inkscape:window-maximized="1" inkscape:window-width="1280" inkscape:window-x="-4" inkscape:window-y="-4" inkscape:zoom="4.2083189" pagecolor="#ffffff" showgrid="false" units="px">
	</sodipodi:namedview>
<path id="path95" inkscape:connector-curvature="0" class="st0" d="M70.3,25.7h-4.9V8.4h-6.3V4.2h17.5v4.2h-6.3
	C70.3,8.4,70.3,25.7,70.3,25.7z"/>
<path id="path97" inkscape:connector-curvature="0" class="st0" d="M96.2,25.7h-4.9V4.2h4.9V25.7z"/>
<path id="path101" inkscape:connector-curvature="0" class="st0" d="M183.1,21.4h8.5v4.3h-13.4V4.2h4.9L183.1,21.4L183.1,21.4z"/>
<g>
	<g id="g111" transform="translate(185.5858,506.7018)">
		<path id="path113" inkscape:connector-curvature="0" class="st0" d="M-73-502.5h8c5.9,0,11.7,3.1,11.7,10.7
			c0,7.2-5.8,10.8-11.4,10.8h-8.3L-73-502.5L-73-502.5z M-68.2-485.2h3.1c4.1,0,6.8-2.6,6.8-6.6c0-3.9-2.8-6.5-6.7-6.5h-3.2
			C-68.2-498.3-68.2-485.2-68.2-485.2z"/>
	</g>
</g>
<path id="path117" inkscape:connector-curvature="0" class="st0" d="M159.6,25.7h5.4l-8.9-21.6h-5.1l-9,21.6h5.3l1.6-4.2h9.1
	L159.6,25.7z M150.3,17.6l3.2-8.4l3.2,8.4H150.3z"/>
<path id="path121" inkscape:connector-curvature="0" class="st0" d="M26.2,7.3l-6.3,6.3l-6.3-6.3L19.9,1L26.2,7.3z"/>
<path id="path125" inkscape:connector-curvature="0" class="st0" d="M26.2,19.9l-6.3,6.3l-6.3-6.3l6.3-6.3L26.2,19.9z"/>
<path id="path129" inkscape:connector-curvature="0" class="st0" d="M13.6,7.3l-6.3,6.3L1,7.3L7.3,1L13.6,7.3z"/>
<path id="path133" inkscape:connector-curvature="0" class="st0" d="M38.9,7.3l-6.3,6.3l-6.3-6.3L32.5,1L38.9,7.3z"/>
</svg>
