<?xml version="1.0" encoding="utf-8"?>
<!-- Generator: Adobe Illustrator 24.1.2, SVG Export Plug-In . SVG Version: 6.00 Build 0)  -->
<svg version="1.1" id="Layer_1" xmlns="http://www.w3.org/2000/svg" xmlns:xlink="http://www.w3.org/1999/xlink" x="0px" y="0px"
	 viewBox="0 0 277.2 57" style="enable-background:new 0 0 277.2 57;" xml:space="preserve">
<style type="text/css">
	.st0{clip-path:url(#SVGID_2_);fill:#FFFFFF;}
	.st1{clip-path:url(#SVGID_4_);fill:#FFFFFF;}
	.st2{clip-path:url(#SVGID_6_);fill:#FFFFFF;}
	.st3{clip-path:url(#SVGID_8_);fill:#FFFFFF;}
	.st4{clip-path:url(#SVGID_10_);fill:#FFFFFF;}
	.st5{clip-path:url(#SVGID_12_);fill:#FFFFFF;}
	.st6{clip-path:url(#SVGID_14_);fill:#FFFFFF;}
	.st7{clip-path:url(#SVGID_16_);fill:#FFFFFF;}
</style>
<g>
	<g>
		<defs>
			<rect id="SVGID_1_" width="277.2" height="57"/>
		</defs>
		<clipPath id="SVGID_2_">
			<use xlink:href="#SVGID_1_"  style="overflow:visible;"/>
		</clipPath>
		<path class="st0" d="M186.4,17.4c6.1,0,11.1,5,11.1,11.1s-5,11.1-11.1,11.1s-11.1-5-11.1-11.1C175.3,22.3,180.3,17.4,186.4,17.4
			 M186.4,10c-10.2,0-18.5,8.3-18.5,18.5S176.2,47,186.4,47s18.5-8.3,18.5-18.5C204.9,18.2,196.6,10,186.4,10"/>
	</g>
	<g>
		<defs>
			<rect id="SVGID_3_" width="277.2" height="57"/>
		</defs>
		<clipPath id="SVGID_4_">
			<use xlink:href="#SVGID_3_"  style="overflow:visible;"/>
		</clipPath>
		<path class="st1" d="M71.6,11.1v3c-3.2-2.6-7.3-4.2-11.7-4.2c-10.2,0-18.5,8.3-18.5,18.5s8.3,18.5,18.5,18.5
			c4.4,0,8.5-1.6,11.7-4.2v3h6.8V11.1H71.6z M60.3,40c-6.4,0-11.5-5.2-11.5-11.5C48.8,22.1,54,17,60.3,17c6.4,0,11.5,5.2,11.5,11.5
			S66.6,40,60.3,40"/>
	</g>
	<g>
		<defs>
			<rect id="SVGID_5_" width="277.2" height="57"/>
		</defs>
		<clipPath id="SVGID_6_">
			<use xlink:href="#SVGID_5_"  style="overflow:visible;"/>
		</clipPath>
		<path class="st2" d="M260.1,11.1v3c-3.2-2.6-7.3-4.2-11.7-4.2c-10.2,0-18.5,8.3-18.5,18.5s8.3,18.5,18.5,18.5
			c4.4,0,8.5-1.6,11.7-4.2v3h6.8V11.1H260.1z M248.9,40c-6.4,0-11.5-5.2-11.5-11.5c0-6.4,5.2-11.5,11.5-11.5
			c6.4,0,11.5,5.2,11.5,11.5S255.2,40,248.9,40"/>
	</g>
	<g>
		<defs>
			<rect id="SVGID_7_" width="277.2" height="57"/>
		</defs>
		<clipPath id="SVGID_8_">
			<use xlink:href="#SVGID_7_"  style="overflow:visible;"/>
		</clipPath>
		<path class="st3" d="M217.1,13.3c-4,2.5-7.4,7-7.4,15v17.5h7.4V28.3c0-11.5,11.9-10.9,11.9-10.9V10l0,0
			C228.9,10,222.5,9.8,217.1,13.3"/>
	</g>
	<g>
		<defs>
			<rect id="SVGID_9_" width="277.2" height="57"/>
		</defs>
		<clipPath id="SVGID_10_">
			<use xlink:href="#SVGID_9_"  style="overflow:visible;"/>
		</clipPath>
		<path class="st4" d="M113.6,13.7c-3.1-2.3-6.9-3.7-11.1-3.7s-8,1.4-11.1,3.7c-4.5,3.4-7.4,8.8-7.4,14.8v17.4h7.4v-2.6V28.5
			c0-6.1,5-11.1,11.1-11.1s11.1,5,11.1,11.1v14.8v2.6h7.4V28.5C121,22.4,118.1,17,113.6,13.7"/>
	</g>
	<g>
		<defs>
			<rect id="SVGID_11_" width="277.2" height="57"/>
		</defs>
		<clipPath id="SVGID_12_">
			<use xlink:href="#SVGID_11_"  style="overflow:visible;"/>
		</clipPath>
		<path class="st5" d="M159.5,0c-1.9,0-3.4,1.5-3.4,3.4v10.7c-3.2-2.6-7.3-4.2-11.7-4.2c-10.2,0-18.5,8.3-18.5,18.5
			s8.3,18.5,18.5,18.5c4.4,0,8.5-1.6,11.7-4.2v3h6.8V3.4V0H159.5z M144.8,40c-6.4,0-11.5-5.2-11.5-11.5c0-6.4,5.2-11.5,11.5-11.5
			c6.4,0,11.5,5.2,11.5,11.5C156.4,34.8,151.2,40,144.8,40"/>
	</g>
	<g>
		<defs>
			<rect id="SVGID_13_" width="277.2" height="57"/>
		</defs>
		<clipPath id="SVGID_14_">
			<use xlink:href="#SVGID_13_"  style="overflow:visible;"/>
		</clipPath>
		<path class="st6" d="M18.5,10c-4.4,0-8.5,1.6-11.7,4.2v-3H0v42.4V57h3.4c1.9,0,3.4-1.5,3.4-3.4V42.8C10,45.4,14.1,47,18.5,47
			C28.8,47,37,38.7,37,28.5C37,18.2,28.8,10,18.5,10 M18.1,40c-6.4,0-11.5-5.2-11.5-11.5c0-6.4,5.2-11.5,11.5-11.5
			s11.5,5.2,11.5,11.5S24.5,40,18.1,40"/>
	</g>
	<g>
		<defs>
			<rect id="SVGID_15_" width="277.2" height="57"/>
		</defs>
		<clipPath id="SVGID_16_">
			<use xlink:href="#SVGID_15_"  style="overflow:visible;"/>
		</clipPath>
		<path class="st7" d="M273.8,11.1c-1.9,0-3.4-1.5-3.4-3.4s1.5-3.4,3.4-3.4s3.4,1.5,3.4,3.4C277.2,9.6,275.7,11.1,273.8,11.1
			 M273.8,4.7c-1.7,0-3,1.3-3,3c0,1.6,1.3,3,3,3s3-1.4,3-3C276.8,6,275.4,4.7,273.8,4.7 M274.7,9.7l-1-1.5H273v1.5h-0.5V5.8h1.6
			c0.7,0,1.2,0.5,1.2,1.2c0,0.9-0.8,1.2-1,1.2l1,1.6h-0.6V9.7z M274.1,6.2H273v1.5h1.1c0.3,0,0.7-0.3,0.7-0.7
			C274.8,6.5,274.4,6.2,274.1,6.2"/>
	</g>
</g>
</svg>
